<mxfile host="Electron" modified="2025-04-17T08:12:21.053Z" agent="Mozilla/5.0 (Windows NT 10.0; Win64; x64) AppleWebKit/537.36 (KHTML, like Gecko) draw.io/24.5.3 Chrome/124.0.6367.207 Electron/30.0.6 Safari/537.36" etag="Pu1dd6_E6-cy4Si3xMM6" version="24.5.3" type="device">
  <diagram name="Seite-1" id="wbKzrDslZjSC3c9pPJzk">
    <mxGraphModel dx="1430" dy="858" grid="1" gridSize="10" guides="1" tooltips="1" connect="1" arrows="1" fold="1" page="1" pageScale="1" pageWidth="827" pageHeight="1169" math="0" shadow="0">
      <root>
        <mxCell id="0" />
        <mxCell id="1" parent="0" />
        <mxCell id="jeDcAwQA-8IsZO7BGQtT-5" value="Schadenshöhe" style="text;html=1;align=center;verticalAlign=middle;whiteSpace=wrap;rounded=0;fontSize=16;fontStyle=0" parent="1" vertex="1">
          <mxGeometry x="320" y="800" width="160" height="30" as="geometry" />
        </mxCell>
        <mxCell id="jeDcAwQA-8IsZO7BGQtT-6" value="Eintrittswahrscheinlichkeit" style="text;html=1;align=center;verticalAlign=middle;whiteSpace=wrap;rounded=0;fontSize=20;rotation=-90;" parent="1" vertex="1">
          <mxGeometry x="50" y="555" width="160" height="30" as="geometry" />
        </mxCell>
        <mxCell id="fwXTcQ87zbBSOZBN-Jjj-1" value="" style="endArrow=classic;html=1;rounded=0;strokeWidth=2;" parent="1" edge="1">
          <mxGeometry width="50" height="50" relative="1" as="geometry">
            <mxPoint x="200" y="760" as="sourcePoint" />
            <mxPoint x="640" y="760" as="targetPoint" />
          </mxGeometry>
        </mxCell>
        <mxCell id="fwXTcQ87zbBSOZBN-Jjj-2" value="" style="endArrow=classic;html=1;rounded=0;strokeWidth=2;" parent="1" edge="1">
          <mxGeometry width="50" height="50" relative="1" as="geometry">
            <mxPoint x="200" y="760" as="sourcePoint" />
            <mxPoint x="200" y="350" as="targetPoint" />
          </mxGeometry>
        </mxCell>
        <mxCell id="Kx792CIud1y4uX8RuCGy-1" value="&lt;font style=&quot;font-size: 38px;&quot;&gt;∞&lt;/font&gt;" style="text;html=1;align=center;verticalAlign=middle;whiteSpace=wrap;rounded=0;fontColor=#A20025;fontStyle=0;fontSize=38;" vertex="1" parent="1">
          <mxGeometry x="580" y="760" width="60" height="30" as="geometry" />
        </mxCell>
        <mxCell id="Kx792CIud1y4uX8RuCGy-2" value="0" style="text;html=1;align=center;verticalAlign=middle;whiteSpace=wrap;rounded=0;fontSize=16;" vertex="1" parent="1">
          <mxGeometry x="160" y="750" width="60" height="30" as="geometry" />
        </mxCell>
        <mxCell id="Kx792CIud1y4uX8RuCGy-3" value="" style="endArrow=none;html=1;rounded=0;" edge="1" parent="1">
          <mxGeometry width="50" height="50" relative="1" as="geometry">
            <mxPoint x="240" y="770" as="sourcePoint" />
            <mxPoint x="240" y="760" as="targetPoint" />
          </mxGeometry>
        </mxCell>
        <mxCell id="Kx792CIud1y4uX8RuCGy-4" value="" style="endArrow=none;html=1;rounded=0;" edge="1" parent="1">
          <mxGeometry width="50" height="50" relative="1" as="geometry">
            <mxPoint x="320" y="770" as="sourcePoint" />
            <mxPoint x="320" y="760" as="targetPoint" />
          </mxGeometry>
        </mxCell>
        <mxCell id="Kx792CIud1y4uX8RuCGy-5" value="" style="endArrow=none;html=1;rounded=0;" edge="1" parent="1">
          <mxGeometry width="50" height="50" relative="1" as="geometry">
            <mxPoint x="399.8" y="770" as="sourcePoint" />
            <mxPoint x="399.8" y="760" as="targetPoint" />
          </mxGeometry>
        </mxCell>
        <mxCell id="Kx792CIud1y4uX8RuCGy-8" value="" style="endArrow=none;html=1;rounded=0;" edge="1" parent="1">
          <mxGeometry width="50" height="50" relative="1" as="geometry">
            <mxPoint x="480" y="770" as="sourcePoint" />
            <mxPoint x="480" y="760" as="targetPoint" />
          </mxGeometry>
        </mxCell>
        <mxCell id="Kx792CIud1y4uX8RuCGy-9" value="" style="endArrow=none;html=1;rounded=0;" edge="1" parent="1">
          <mxGeometry width="50" height="50" relative="1" as="geometry">
            <mxPoint x="560" y="770" as="sourcePoint" />
            <mxPoint x="560" y="760" as="targetPoint" />
          </mxGeometry>
        </mxCell>
        <mxCell id="Kx792CIud1y4uX8RuCGy-10" value="" style="rounded=0;whiteSpace=wrap;html=1;strokeColor=#DEDEDE;" vertex="1" parent="1">
          <mxGeometry x="210" y="690" width="60" height="60" as="geometry" />
        </mxCell>
        <mxCell id="Kx792CIud1y4uX8RuCGy-11" value="" style="rounded=0;whiteSpace=wrap;html=1;fillColor=#f5f5f5;fontColor=#333333;strokeColor=#CCCCCC;" vertex="1" parent="1">
          <mxGeometry x="290" y="690" width="60" height="60" as="geometry" />
        </mxCell>
        <mxCell id="Kx792CIud1y4uX8RuCGy-13" value="" style="rounded=0;whiteSpace=wrap;html=1;fillColor=#d5e8d4;strokeColor=#82b366;" vertex="1" parent="1">
          <mxGeometry x="450" y="690" width="60" height="60" as="geometry" />
        </mxCell>
        <mxCell id="Kx792CIud1y4uX8RuCGy-14" value="" style="rounded=0;whiteSpace=wrap;html=1;fillColor=#fff2cc;strokeColor=#d6b656;" vertex="1" parent="1">
          <mxGeometry x="530" y="690" width="60" height="60" as="geometry" />
        </mxCell>
        <mxCell id="Kx792CIud1y4uX8RuCGy-15" value="" style="endArrow=none;html=1;rounded=0;" edge="1" parent="1">
          <mxGeometry width="50" height="50" relative="1" as="geometry">
            <mxPoint x="190" y="720" as="sourcePoint" />
            <mxPoint x="200" y="720" as="targetPoint" />
          </mxGeometry>
        </mxCell>
        <mxCell id="Kx792CIud1y4uX8RuCGy-16" value="1.00" style="text;html=1;align=center;verticalAlign=middle;whiteSpace=wrap;rounded=0;fontSize=16;" vertex="1" parent="1">
          <mxGeometry x="140" y="355" width="60" height="30" as="geometry" />
        </mxCell>
        <mxCell id="Kx792CIud1y4uX8RuCGy-17" value="" style="rounded=0;whiteSpace=wrap;html=1;fillColor=#f5f5f5;fontColor=#333333;strokeColor=#CCCCCC;" vertex="1" parent="1">
          <mxGeometry x="210" y="610" width="60" height="60" as="geometry" />
        </mxCell>
        <mxCell id="Kx792CIud1y4uX8RuCGy-19" value="" style="rounded=0;whiteSpace=wrap;html=1;fillColor=#d5e8d4;strokeColor=#82b366;" vertex="1" parent="1">
          <mxGeometry x="370" y="610" width="60" height="60" as="geometry" />
        </mxCell>
        <mxCell id="Kx792CIud1y4uX8RuCGy-20" value="" style="rounded=0;whiteSpace=wrap;html=1;fillColor=#fff2cc;strokeColor=#d6b656;" vertex="1" parent="1">
          <mxGeometry x="450" y="610" width="60" height="60" as="geometry" />
        </mxCell>
        <mxCell id="Kx792CIud1y4uX8RuCGy-21" value="" style="rounded=0;whiteSpace=wrap;html=1;fillColor=#fad7ac;strokeColor=#b46504;" vertex="1" parent="1">
          <mxGeometry x="530" y="610" width="60" height="60" as="geometry" />
        </mxCell>
        <mxCell id="Kx792CIud1y4uX8RuCGy-22" value="" style="rounded=0;whiteSpace=wrap;html=1;fillColor=#DEF2DD;strokeColor=#82b366;" vertex="1" parent="1">
          <mxGeometry x="210" y="530" width="60" height="60" as="geometry" />
        </mxCell>
        <mxCell id="Kx792CIud1y4uX8RuCGy-23" value="" style="rounded=0;whiteSpace=wrap;html=1;fillColor=#d5e8d4;strokeColor=#82b366;" vertex="1" parent="1">
          <mxGeometry x="290" y="530" width="60" height="60" as="geometry" />
        </mxCell>
        <mxCell id="Kx792CIud1y4uX8RuCGy-24" value="" style="rounded=0;whiteSpace=wrap;html=1;fillColor=#fff2cc;strokeColor=#d6b656;" vertex="1" parent="1">
          <mxGeometry x="370" y="530" width="60" height="60" as="geometry" />
        </mxCell>
        <mxCell id="Kx792CIud1y4uX8RuCGy-25" value="" style="rounded=0;whiteSpace=wrap;html=1;fillColor=#fad7ac;strokeColor=#b46504;" vertex="1" parent="1">
          <mxGeometry x="450" y="530" width="60" height="60" as="geometry" />
        </mxCell>
        <mxCell id="Kx792CIud1y4uX8RuCGy-26" value="" style="rounded=0;whiteSpace=wrap;html=1;fillColor=#fad9d5;strokeColor=#ae4132;" vertex="1" parent="1">
          <mxGeometry x="530" y="530" width="60" height="60" as="geometry" />
        </mxCell>
        <mxCell id="Kx792CIud1y4uX8RuCGy-27" value="" style="rounded=0;whiteSpace=wrap;html=1;fillColor=#d5e8d4;strokeColor=#82b366;" vertex="1" parent="1">
          <mxGeometry x="210" y="450" width="60" height="60" as="geometry" />
        </mxCell>
        <mxCell id="Kx792CIud1y4uX8RuCGy-28" value="" style="rounded=0;whiteSpace=wrap;html=1;fillColor=#fff2cc;strokeColor=#d6b656;" vertex="1" parent="1">
          <mxGeometry x="290" y="450" width="60" height="60" as="geometry" />
        </mxCell>
        <mxCell id="Kx792CIud1y4uX8RuCGy-29" value="" style="rounded=0;whiteSpace=wrap;html=1;fillColor=#fad7ac;strokeColor=#b46504;" vertex="1" parent="1">
          <mxGeometry x="370" y="450" width="60" height="60" as="geometry" />
        </mxCell>
        <mxCell id="Kx792CIud1y4uX8RuCGy-30" value="" style="rounded=0;whiteSpace=wrap;html=1;fillColor=#fad9d5;strokeColor=#ae4132;" vertex="1" parent="1">
          <mxGeometry x="450" y="450" width="60" height="60" as="geometry" />
        </mxCell>
        <mxCell id="Kx792CIud1y4uX8RuCGy-31" value="" style="rounded=0;whiteSpace=wrap;html=1;fillColor=#f8cecc;strokeColor=#b85450;" vertex="1" parent="1">
          <mxGeometry x="530" y="450" width="60" height="60" as="geometry" />
        </mxCell>
        <mxCell id="Kx792CIud1y4uX8RuCGy-32" value="" style="rounded=0;whiteSpace=wrap;html=1;fillColor=#fff2cc;strokeColor=#d6b656;" vertex="1" parent="1">
          <mxGeometry x="210" y="370" width="60" height="60" as="geometry" />
        </mxCell>
        <mxCell id="Kx792CIud1y4uX8RuCGy-33" value="" style="rounded=0;whiteSpace=wrap;html=1;fillColor=#fad7ac;strokeColor=#b46504;" vertex="1" parent="1">
          <mxGeometry x="290" y="370" width="60" height="60" as="geometry" />
        </mxCell>
        <mxCell id="Kx792CIud1y4uX8RuCGy-34" value="" style="rounded=0;whiteSpace=wrap;html=1;fillColor=#fad9d5;strokeColor=#ae4132;" vertex="1" parent="1">
          <mxGeometry x="370" y="370" width="60" height="60" as="geometry" />
        </mxCell>
        <mxCell id="Kx792CIud1y4uX8RuCGy-35" value="" style="rounded=0;whiteSpace=wrap;html=1;fillColor=#f8cecc;strokeColor=#b85450;" vertex="1" parent="1">
          <mxGeometry x="450" y="370" width="60" height="60" as="geometry" />
        </mxCell>
        <mxCell id="Kx792CIud1y4uX8RuCGy-36" value="" style="rounded=0;whiteSpace=wrap;html=1;fillColor=#a20025;strokeColor=#6F0000;fontColor=#ffffff;" vertex="1" parent="1">
          <mxGeometry x="530" y="370" width="60" height="60" as="geometry" />
        </mxCell>
        <mxCell id="Kx792CIud1y4uX8RuCGy-37" value="" style="endArrow=none;html=1;rounded=0;" edge="1" parent="1">
          <mxGeometry width="50" height="50" relative="1" as="geometry">
            <mxPoint x="190" y="640" as="sourcePoint" />
            <mxPoint x="200" y="640" as="targetPoint" />
          </mxGeometry>
        </mxCell>
        <mxCell id="Kx792CIud1y4uX8RuCGy-38" value="" style="endArrow=none;html=1;rounded=0;" edge="1" parent="1">
          <mxGeometry width="50" height="50" relative="1" as="geometry">
            <mxPoint x="190" y="560" as="sourcePoint" />
            <mxPoint x="200" y="560" as="targetPoint" />
          </mxGeometry>
        </mxCell>
        <mxCell id="Kx792CIud1y4uX8RuCGy-39" value="" style="endArrow=none;html=1;rounded=0;" edge="1" parent="1">
          <mxGeometry width="50" height="50" relative="1" as="geometry">
            <mxPoint x="190" y="480" as="sourcePoint" />
            <mxPoint x="200" y="480" as="targetPoint" />
          </mxGeometry>
        </mxCell>
        <mxCell id="Kx792CIud1y4uX8RuCGy-40" value="" style="endArrow=none;html=1;rounded=0;" edge="1" parent="1">
          <mxGeometry width="50" height="50" relative="1" as="geometry">
            <mxPoint x="190" y="400" as="sourcePoint" />
            <mxPoint x="200" y="400" as="targetPoint" />
          </mxGeometry>
        </mxCell>
        <mxCell id="Kx792CIud1y4uX8RuCGy-41" value="" style="rounded=0;whiteSpace=wrap;html=1;fillColor=#DEF2DD;strokeColor=#82b366;" vertex="1" parent="1">
          <mxGeometry x="290" y="610" width="60" height="60" as="geometry" />
        </mxCell>
        <mxCell id="Kx792CIud1y4uX8RuCGy-42" value="" style="rounded=0;whiteSpace=wrap;html=1;fillColor=#DEF2DD;strokeColor=#82b366;" vertex="1" parent="1">
          <mxGeometry x="370" y="690" width="60" height="60" as="geometry" />
        </mxCell>
        <mxCell id="Kx792CIud1y4uX8RuCGy-43" value="Risikostufen" style="text;html=1;align=center;verticalAlign=middle;whiteSpace=wrap;rounded=0;" vertex="1" parent="1">
          <mxGeometry x="132.5" y="770" width="75" height="30" as="geometry" />
        </mxCell>
        <mxCell id="Kx792CIud1y4uX8RuCGy-44" value="1" style="text;html=1;align=center;verticalAlign=middle;whiteSpace=wrap;rounded=0;fontSize=16;" vertex="1" parent="1">
          <mxGeometry x="230" y="770" width="20" height="30" as="geometry" />
        </mxCell>
        <mxCell id="Kx792CIud1y4uX8RuCGy-45" value="2" style="text;html=1;align=center;verticalAlign=middle;whiteSpace=wrap;rounded=0;fontSize=16;" vertex="1" parent="1">
          <mxGeometry x="290" y="770" width="60" height="30" as="geometry" />
        </mxCell>
        <mxCell id="Kx792CIud1y4uX8RuCGy-46" value="3" style="text;html=1;align=center;verticalAlign=middle;whiteSpace=wrap;rounded=0;fontSize=16;" vertex="1" parent="1">
          <mxGeometry x="370" y="770" width="60" height="30" as="geometry" />
        </mxCell>
        <mxCell id="Kx792CIud1y4uX8RuCGy-47" value="4" style="text;html=1;align=center;verticalAlign=middle;whiteSpace=wrap;rounded=0;fontSize=16;" vertex="1" parent="1">
          <mxGeometry x="450" y="770" width="60" height="30" as="geometry" />
        </mxCell>
        <mxCell id="Kx792CIud1y4uX8RuCGy-48" value="5" style="text;html=1;align=center;verticalAlign=middle;whiteSpace=wrap;rounded=0;fontSize=16;" vertex="1" parent="1">
          <mxGeometry x="530" y="770" width="60" height="30" as="geometry" />
        </mxCell>
        <mxCell id="Kx792CIud1y4uX8RuCGy-49" value="1" style="text;html=1;align=center;verticalAlign=middle;whiteSpace=wrap;rounded=0;fontSize=16;" vertex="1" parent="1">
          <mxGeometry x="150" y="705" width="40" height="30" as="geometry" />
        </mxCell>
        <mxCell id="Kx792CIud1y4uX8RuCGy-50" value="2" style="text;html=1;align=center;verticalAlign=middle;whiteSpace=wrap;rounded=0;fontSize=16;" vertex="1" parent="1">
          <mxGeometry x="150" y="625" width="40" height="30" as="geometry" />
        </mxCell>
        <mxCell id="Kx792CIud1y4uX8RuCGy-51" value="4" style="text;html=1;align=center;verticalAlign=middle;whiteSpace=wrap;rounded=0;fontSize=16;" vertex="1" parent="1">
          <mxGeometry x="150" y="465" width="40" height="30" as="geometry" />
        </mxCell>
        <mxCell id="Kx792CIud1y4uX8RuCGy-52" value="3&lt;span style=&quot;color: rgba(0, 0, 0, 0); font-family: monospace; font-size: 0px; text-align: start; text-wrap: nowrap;&quot;&gt;%3CmxGraphModel%3E%3Croot%3E%3CmxCell%20id%3D%220%22%2F%3E%3CmxCell%20id%3D%221%22%20parent%3D%220%22%2F%3E%3CmxCell%20id%3D%222%22%20value%3D%222%22%20style%3D%22text%3Bhtml%3D1%3Balign%3Dcenter%3BverticalAlign%3Dmiddle%3BwhiteSpace%3Dwrap%3Brounded%3D0%3BfontSize%3D16%3B%22%20vertex%3D%221%22%20parent%3D%221%22%3E%3CmxGeometry%20x%3D%22160%22%20y%3D%22625%22%20width%3D%2230%22%20height%3D%2230%22%20as%3D%22geometry%22%2F%3E%3C%2FmxCell%3E%3C%2Froot%3E%3C%2FmxGraphModel%3E&lt;/span&gt;" style="text;html=1;align=center;verticalAlign=middle;whiteSpace=wrap;rounded=0;fontSize=16;" vertex="1" parent="1">
          <mxGeometry x="150" y="545" width="40" height="30" as="geometry" />
        </mxCell>
        <mxCell id="Kx792CIud1y4uX8RuCGy-53" value="5" style="text;html=1;align=center;verticalAlign=middle;whiteSpace=wrap;rounded=0;fontSize=16;" vertex="1" parent="1">
          <mxGeometry x="150" y="385" width="40" height="30" as="geometry" />
        </mxCell>
        <mxCell id="Kx792CIud1y4uX8RuCGy-56" value="" style="endArrow=classic;html=1;rounded=0;entryX=0;entryY=0.5;entryDx=0;entryDy=0;exitX=1;exitY=0.5;exitDx=0;exitDy=0;" edge="1" parent="1" source="Kx792CIud1y4uX8RuCGy-43" target="Kx792CIud1y4uX8RuCGy-44">
          <mxGeometry width="50" height="50" relative="1" as="geometry">
            <mxPoint x="200" y="790" as="sourcePoint" />
            <mxPoint x="260" y="850" as="targetPoint" />
          </mxGeometry>
        </mxCell>
        <mxCell id="Kx792CIud1y4uX8RuCGy-58" value="" style="endArrow=classic;html=1;rounded=0;entryX=0.5;entryY=1;entryDx=0;entryDy=0;" edge="1" parent="1" source="Kx792CIud1y4uX8RuCGy-43" target="Kx792CIud1y4uX8RuCGy-49">
          <mxGeometry width="50" height="50" relative="1" as="geometry">
            <mxPoint x="218" y="795" as="sourcePoint" />
            <mxPoint x="240" y="795" as="targetPoint" />
          </mxGeometry>
        </mxCell>
        <mxCell id="Kx792CIud1y4uX8RuCGy-59" value="Risikoklassen" style="text;html=1;align=center;verticalAlign=middle;whiteSpace=wrap;rounded=0;" vertex="1" parent="1">
          <mxGeometry x="560" y="310" width="75" height="20" as="geometry" />
        </mxCell>
        <mxCell id="Kx792CIud1y4uX8RuCGy-60" value="" style="endArrow=classic;html=1;rounded=0;exitX=0.25;exitY=1;exitDx=0;exitDy=0;entryX=0.5;entryY=0;entryDx=0;entryDy=0;" edge="1" parent="1" source="Kx792CIud1y4uX8RuCGy-59" target="Kx792CIud1y4uX8RuCGy-36">
          <mxGeometry width="50" height="50" relative="1" as="geometry">
            <mxPoint x="180" y="780" as="sourcePoint" />
            <mxPoint x="180" y="745" as="targetPoint" />
          </mxGeometry>
        </mxCell>
        <mxCell id="Kx792CIud1y4uX8RuCGy-62" value="" style="endArrow=classic;html=1;rounded=0;entryX=0.5;entryY=0;entryDx=0;entryDy=0;exitX=0.25;exitY=1;exitDx=0;exitDy=0;" edge="1" parent="1" source="Kx792CIud1y4uX8RuCGy-59" target="Kx792CIud1y4uX8RuCGy-35">
          <mxGeometry width="50" height="50" relative="1" as="geometry">
            <mxPoint x="580" y="350" as="sourcePoint" />
            <mxPoint x="570" y="380" as="targetPoint" />
          </mxGeometry>
        </mxCell>
        <mxCell id="Kx792CIud1y4uX8RuCGy-63" value="" style="endArrow=classic;html=1;rounded=0;exitX=0.25;exitY=1;exitDx=0;exitDy=0;entryX=0.5;entryY=0;entryDx=0;entryDy=0;" edge="1" parent="1" source="Kx792CIud1y4uX8RuCGy-59" target="Kx792CIud1y4uX8RuCGy-34">
          <mxGeometry width="50" height="50" relative="1" as="geometry">
            <mxPoint x="599" y="370" as="sourcePoint" />
            <mxPoint x="580" y="390" as="targetPoint" />
          </mxGeometry>
        </mxCell>
        <mxCell id="Kx792CIud1y4uX8RuCGy-64" value="ACHTUNG!" style="text;html=1;align=center;verticalAlign=middle;whiteSpace=wrap;rounded=0;fontColor=#A20025;" vertex="1" parent="1">
          <mxGeometry x="572.5" y="780" width="75" height="30" as="geometry" />
        </mxCell>
      </root>
    </mxGraphModel>
  </diagram>
</mxfile>
